# xmcd
#
# Track frame offsets:
#	150
#	19212
#	35806
#	51137
#	70231
#	82466
#	101370
#	121993
#	135821
#	147938
#	165213
#	178777
#	193484
#	211990
#	230515
#
# Disc length: 3351 seconds
#
# Revision: 1
# Processed by: cddbd v1.5.1PL2 Copyright (c) Steve Scherf et al.
# Submitted via: audiograbber 1.83.01
#
DISCID=d70d150f
DTITLE=Various Artist - If I Could Only Fly - A Tribute to Blaze Foley [CD 2]
DYEAR=2004
DGENRE=Country
TTITLE0=David Waddell - Let Me Ride In Your Big Cadillac
TTITLE1=Julieann Banks - Clay Pigeons
TTITLE2=Calvin Russel - It's Just You
TTITLE3=Shiva's Headband - Misty Garden
TTITLE4=Richard Dobson - Faded Lives And Memories
TTITLE5=De Lewellen - Officer Norris
TTITLE6=John Casner - The Way You Smile
TTITLE7=Tom Smith - Alibis
TTITLE8=Jim Stricklan - No Goodwill Stores In Waikiki
TTITLE9=George Ensle - Blue Love
TTITLE10=Sheri Frushay - Election Day
TTITLE11=Harvey Thomas Young - Down Here Where I Am
TTITLE12=Rachel Rain - Oval Room
TTITLE13=The Rythm Rats - WW3
TTITLE14=Elliot Rogers - Cold, Cold World
EXTD=
EXTT0=
EXTT1=
EXTT2=
EXTT3=
EXTT4=
EXTT5=
EXTT6=
EXTT7=
EXTT8=
EXTT9=
EXTT10=
EXTT11=
EXTT12=
EXTT13=
EXTT14=
PLAYORDER=
